<?xml version="1.0" encoding="UTF-8" standalone="no"?>
<svg
   xmlns:dc="http://purl.org/dc/elements/1.1/"
   xmlns:cc="http://creativecommons.org/ns#"
   xmlns:rdf="http://www.w3.org/1999/02/22-rdf-syntax-ns#"
   xmlns:svg="http://www.w3.org/2000/svg"
   xmlns="http://www.w3.org/2000/svg"
   xmlns:sodipodi="http://sodipodi.sourceforge.net/DTD/sodipodi-0.dtd"
   xmlns:inkscape="http://www.inkscape.org/namespaces/inkscape"
   viewBox="0 0 160 110"
   version="1.1"
   id="svg44"
   sodipodi:docname="tv-for-youtube.svg"
   width="160"
   height="110"
   inkscape:version="1.0.2 (e86c870879, 2021-01-15, custom)">
  <metadata
     id="metadata50">
    <rdf:RDF>
      <cc:Work
         rdf:about="">
        <dc:format>image/svg+xml</dc:format>
        <dc:type
           rdf:resource="http://purl.org/dc/dcmitype/StillImage" />
        <dc:title></dc:title>
      </cc:Work>
    </rdf:RDF>
  </metadata>
  <defs
     id="defs48">
    <rect
       x="30.404494"
       y="14.280899"
       width="103.19101"
       height="75.550562"
       id="rect60" />
    <rect
       x="31.786517"
       y="149.7191"
       width="152.48315"
       height="77.393258"
       id="rect54" />
  </defs>
  <sodipodi:namedview
     pagecolor="#ffffff"
     bordercolor="#666666"
     borderopacity="1"
     objecttolerance="10"
     gridtolerance="10"
     guidetolerance="10"
     inkscape:pageopacity="0"
     inkscape:pageshadow="2"
     inkscape:window-width="1920"
     inkscape:window-height="1027"
     id="namedview46"
     showgrid="false"
     inkscape:zoom="1.0853659"
     inkscape:cx="-10.663778"
     inkscape:cy="50.895372"
     inkscape:window-x="-8"
     inkscape:window-y="-8"
     inkscape:window-maximized="1"
     inkscape:current-layer="svg44" />
  <path
     d="M 154.3,17.5 A 19.6,19.6 0 0 0 140.5,3.7 C 128.4,0.4 79.7,0.4 79.7,0.4 79.7,0.4 31,0.5 18.9,3.8 A 19.6,19.6 0 0 0 5.1,17.6 C 1.44,39.1 0.02,71.86 5.2,92.5 A 19.6,19.6 0 0 0 19,106.3 c 12.1,3.3 60.8,3.3 60.8,3.3 0,0 48.7,0 60.8,-3.3 a 19.6,19.6 0 0 0 13.8,-13.8 c 3.86,-21.53 5.05,-54.27 -0.1,-75 z"
     fill="#ff0000"
     id="path31" />
  <text
     xml:space="preserve"
     id="text58"
     style="font-style:normal;font-weight:normal;font-size:40px;line-height:1.25;font-family:sans-serif;white-space:pre;shape-inside:url(#rect60);fill:#000000;fill-opacity:1;stroke:none;"
     transform="translate(8.752809,10.134831)"><tspan
       x="30.404297"
       y="62.938838"><tspan
         style="font-style:normal;font-variant:normal;font-weight:bold;font-stretch:normal;font-size:53.3333px;font-family:sans-serif;-inkscape-font-specification:'sans-serif, Bold';font-variant-ligatures:normal;font-variant-caps:normal;font-variant-numeric:normal;font-variant-east-asian:normal">TV</tspan></tspan></text>
  <path
     id="rect64"
     d="M 24.876953 13.820312 L 24.876953 46.527344 L 35.472656 46.527344 L 35.472656 24.416016 L 61.167969 24.416016 L 61.167969 13.820312 L 24.876953 13.820312 z M 101.80859 13.820312 L 101.80859 24.416016 L 126.68555 24.416016 L 126.68555 46.527344 L 135.89844 46.527344 L 135.89844 13.820312 L 101.80859 13.820312 z M 24.876953 66.337891 L 24.876953 96.28125 L 61.167969 96.28125 L 61.167969 86.607422 L 35.472656 86.607422 L 35.472656 66.337891 L 24.876953 66.337891 z M 126.68555 66.337891 L 126.68555 86.607422 L 101.80859 86.607422 L 101.80859 96.28125 L 135.89844 96.28125 L 135.89844 66.337891 L 126.68555 66.337891 z "
     style="fill:#ffffff;fill-opacity:1" />
</svg>
